<svg width="24" height="24" viewBox="0 0 24 24" fill="none" xmlns="http://www.w3.org/2000/svg">
  <path d="M21 9H3V11H21V9Z" fill="black"/>
  <path fill-rule="evenodd" clip-rule="evenodd" d="M18 6V4.5C18 3.12 16.88 2 15.5 2C14.12 2 13 3.12 13 4.5V6H11V4.5C11 3.12 9.88 2 8.5 2C7.12 2 6 3.12 6 4.5V6H4C2.9 6 2 6.9 2 8V20C2 21.1 2.9 22 4 22H20C21.1 22 22 21.1 22 20V8C22 6.9 21.1 6 20 6H18ZM14.5 4.5C14.5 3.95 14.95 3.5 15.5 3.5C16.05 3.5 16.5 3.95 16.5 4.5V6H14.5V4.5ZM8.5 3.5C7.95 3.5 7.5 3.95 7.5 4.5V6H9.5V4.5C9.5 3.95 9.05 3.5 8.5 3.5ZM4 20V8H20V20H4Z" fill="black"/>
</svg>
