<?xml version="1.0" encoding="UTF-8"?>
<svg width="24px" height="24px" viewBox="0 0 24 24" version="1.1" xmlns="http://www.w3.org/2000/svg" xmlns:xlink="http://www.w3.org/1999/xlink">
    <title>Shopping Bag</title>
    <g stroke="none" stroke-width="1" fill="none" fill-rule="evenodd">
        <path d="M19,7H16V6A4,4,0,0,0,8,6V7H5A1,1,0,0,0,4,8V19a3,3,0,0,0,3,3H17a3,3,0,0,0,3-3V8A1,1,0,0,0,19,7ZM10,6a2,2,0,0,1,4,0V7H10ZM18,19a1,1,0,0,1-1,1H7a1,1,0,0,1-1-1V9H8v1a1,1,0,0,0,2,0V9h4v1a1,1,0,0,0,2,0V9h2Z" fill="#000000"/>
    </g>
</svg>
